<svg width="32" height="32" viewBox="0 0 32 32" fill="none" xmlns="http://www.w3.org/2000/svg">
<path d="M19.45 10.1503C19.45 10.1626 19.4439 10.1742 19.4337 10.1812L19.1366 10.3861C18.6557 10.7178 18 10.3735 18 9.7893V3C18 2.44771 18.4477 2 19 2H21C21.5523 2 22 2.44772 22 3V9.36861C22 10.1139 21.1636 10.5531 20.55 10.13C20.3867 10.0225 20.1955 9.96516 20 9.96516C19.8113 9.96516 19.6265 10.0186 19.467 10.119C19.4563 10.1258 19.45 10.1376 19.45 10.1503Z" fill="#435CAD"/>
<path d="M28 3V29C28 29.2652 27.8946 29.5196 27.7071 29.7071C27.5196 29.8946 27.2652 30 27 30H5C4.73478 30 4.48043 29.8946 4.29289 29.7071C4.10536 29.5196 4 29.2652 4 29V3C4 2.73478 4.10536 2.48043 4.29289 2.29289C4.48043 2.10536 4.73478 2 5 2H15C15.5523 2 16 2.44772 16 3V13C16.0005 13.1809 16.05 13.3583 16.1434 13.5133C16.2367 13.6682 16.3703 13.795 16.53 13.88C16.6864 13.9603 16.8611 13.9979 17.0367 13.9892C17.2123 13.9804 17.3824 13.9255 17.53 13.83L19.447 12.565C19.7822 12.3437 20.2173 12.3445 20.5517 12.567L22.45 13.83C22.6004 13.929 22.7748 13.9856 22.9547 13.9938C23.1346 14.002 23.3133 13.9614 23.4721 13.8764C23.6308 13.7914 23.7637 13.6651 23.8566 13.5108C23.9495 13.3566 23.9991 13.1801 24 13V3C24 2.44771 24.4477 2 25 2H27C27.2652 2 27.5196 2.10536 27.7071 2.29289C27.8946 2.48043 28 2.73478 28 3Z" fill="#435CAD"/>
</svg>
